<?xml version="1.0" encoding="UTF-8"?>
<svg width="156px" height="27px" viewBox="0 0 156 27" version="1.1" xmlns="http://www.w3.org/2000/svg" xmlns:xlink="http://www.w3.org/1999/xlink">
    <title>Group 2</title>
    <g id="-Pinguino" stroke="none" stroke-width="1" fill="none" fill-rule="evenodd">
        <g id="Group-2">
            <g id="PENGUIN">
                <g id="penguin" transform="translate(13.088042, 0.000000)" fill-rule="nonzero">
                    <path d="M23.8119842,13.42523 C23.8119842,7.02770039 22.3335085,0.0307490145 13.455979,0.0307490145 C4.57844941,0.0307490145 3.09997372,7.02770039 3.09997372,13.42523 C3.09997372,19.8228647 0,21.1582654 0,26.8812089 L3.87679369,26.8812089 L13.455979,22.8399474 L23.0351643,26.8812089 L26.911958,26.8812089 C26.911958,21.1582654 23.8119842,19.8228647 23.8119842,13.42523 Z" id="Path" fill="#424242"></path>
                    <g id="Group" opacity="0.1" fill="#000000">
                        <path d="M14.268226,0.0511432326 C14.0046255,0.0376346912 13.733929,0.0308015769 13.455979,0.0308015769 C4.57844941,0.0308015769 3.09997372,7.02775296 3.09997372,13.4253351 C3.09997372,19.8228647 0,21.1582654 0,26.8812089 L1.62444152,26.8812089 C1.62444152,21.1582129 4.72441524,19.8228121 4.72441524,13.42523 C4.72441524,7.22801577 6.11180026,0.468331143 14.268226,0.0511432326 Z" id="Path"></path>
                    </g>
                    <path d="M8.88331143,11.6675953 C8.88331143,11.6675953 9.10911958,13.4253351 13.455979,13.4253351 C17.8028384,13.4253351 18.0286465,11.6675953 18.0286465,11.6675953 L18.0286465,10.9045466 L13.749067,9.71222076 L8.88341656,10.85682 L8.88341656,11.6675953 L8.88331143,11.6675953 L8.88331143,11.6675953 Z" id="Path" fill="#FFA001"></path>
                    <path d="M19.8636005,10.0937188 L18.5997898,10.0937188 C14.8321156,10.0937188 16.1198423,6.94607096 13.455979,6.94607096 C10.7921156,6.94607096 12.0797898,10.0937188 8.3121682,10.0937188 L7.04835742,10.0937188 C6.61377135,10.0937188 6.26144547,10.4459921 6.26144547,10.8806307 C6.26144547,11.3152694 6.61371879,11.6675427 7.04835742,11.6675427 L8.88341656,11.6675427 C10.572615,11.6675427 12.2017871,10.6588699 13.4560841,11.7903285 L13.4560841,11.7903285 L13.4560841,11.7903285 C14.7103285,10.6588699 16.3395007,11.6675427 18.0287516,11.6675427 L19.8638108,11.6675427 C20.2983968,11.6675427 20.6507227,11.3152694 20.6507227,10.8806307 C20.650565,10.4460447 20.2982917,10.0937188 19.8636005,10.0937188 Z" id="Path" fill="#FFC108"></path>
                    <circle id="Oval" fill="#E6E1D7" cx="8.14507227" cy="6.97003942" r="1.88383706"></circle>
                    <circle id="Oval" fill="#212121" cx="8.14507227" cy="6.97003942" r="1"></circle>
                    <circle id="Oval" fill="#E6E1D7" cx="18.7668857" cy="6.97003942" r="1.88383706"></circle>
                    <circle id="Oval" fill="#212121" cx="18.7668857" cy="6.97003942" r="1"></circle>
                    <path d="M23.0351643,26.8812089 C23.0351643,26.8812089 23.7505388,20.8720631 21.1275164,17.9628384 C18.5044941,15.0536137 17.0397372,17.3498555 13.455979,17.3498555 C9.87222076,17.3498555 8.40751643,15.0536662 5.78449409,17.9628909 C3.16147175,20.8721156 3.87684625,26.8812089 3.87684625,26.8812089 L23.0351643,26.8812089 Z" id="Path" fill="#E6E1D7"></path>
                </g>
                <rect id="Rectangle" fill="#EFF0F1" x="0" y="14.4021025" width="15.6636005" height="1" rx="0.5"></rect>
                <rect id="Rectangle" fill="#FFFFFF" x="1.41918528" y="14.4021025" width="14.2444152" height="1" rx="0.5"></rect>
                <g id="wine" transform="translate(3.311432, 5.571616)" fill-rule="nonzero">
                    <path d="M3.2265371,5.01327893 L3.22098693,5.01471402 C3.12246698,5.04082233 3.02252922,5.06048136 2.92205547,5.07336261 C2.63152708,5.11091708 2.33562141,5.09302165 2.05062591,5.0188291 C2.04365793,5.01704821 2.03667266,5.01507711 2.02970468,5.01327893 C-0.0918113286,4.45098209 -0.169946054,2.81808908 0.126305415,1.56727644 C0.26416073,0.984957466 0.483176568,0.485424303 0.614945709,0.215090947 C0.679127187,0.0833218065 0.812867418,0 0.959298707,0 L4.29696037,0 C4.44339166,0 4.57713189,0.0833218065 4.64131337,0.215090947 C4.77308251,0.485424303 4.99209835,0.984957466 5.12995366,1.56727644 C5.42618784,2.81808908 5.34805312,4.45098209 3.2265371,5.01327893 Z" id="Path" fill="#C2DFF6"></path>
                    <g id="Group" transform="translate(0.587869, 0.000000)" fill="#D1E7F8">
                        <path d="M2.63866796,5.01327893 L2.63311778,5.01471402 C2.53459783,5.04082233 2.43466007,5.06048136 2.33418632,5.07336261 C2.23960855,5.06120755 2.14556678,5.04296632 2.0527699,5.0188291 C2.04580192,5.01704821 2.03881665,5.01507711 2.03184868,5.01327893 C-0.0896673352,4.45098209 -0.167802061,2.81808908 0.128449409,1.56727644 C0.266304724,0.984957466 0.485320562,0.485424303 0.617089702,0.215090947 C0.681271181,0.0833218065 0.814994121,0 0.96142541,0 L3.70907393,0 C3.85550522,0 3.98924545,0.0833218065 4.05342693,0.215090947 C4.18519607,0.485424303 4.40421191,0.984957466 4.54206722,1.56727644 C4.83831869,2.81808908 4.76018397,4.45098209 2.63866796,5.01327893 Z" id="Path"></path>
                        <rect id="Rectangle" x="1.69161076" y="4.2757625" width="1" height="4.15670171"></rect>
                    </g>
                    <path d="M2.54967494,8.0266443 L0.798464624,8.54561173 C0.580244139,8.61027734 0.642177882,8.85261775 0.876910575,8.85261775 L4.37931392,8.85261775 C4.61404661,8.85261775 4.67598036,8.61027734 4.45775987,8.54561173 L2.70656684,8.0266443 C2.65616571,8.01168822 2.60005879,8.01168822 2.54967494,8.0266443 Z" id="Path" fill="#B3D8F4"></path>
                    <path d="M3.2265371,5.01327893 L3.22098693,5.01471402 C3.12246698,5.04082233 3.02252922,5.06048136 2.92205547,5.07336261 C2.63152708,5.11091708 2.33562141,5.09302165 2.05062591,5.0188291 C2.04365793,5.01704821 2.03667266,5.01507711 2.02970468,5.01327893 C-0.0918113286,4.45098209 -0.169946054,2.81808908 0.126305415,1.56727644 L5.12991908,1.56727644 C5.42618784,2.81808908 5.34805312,4.45098209 3.2265371,5.01327893 Z" id="Path" fill="#ED4850"></path>
                    <path d="M2.92205547,5.07334532 C2.63152708,5.11089979 2.33562141,5.09300436 2.05062591,5.01881181 C2.04365793,5.01703092 2.03667266,5.01505982 2.02970468,5.01326164 C-0.0918113286,4.45098209 -0.169946054,2.81808908 0.126305415,1.56727644 L0.716318556,1.56727644 C0.420067086,2.81808908 0.498201812,4.45098209 2.61971782,5.01327893 C2.6266858,5.01505982 2.63367107,5.01703092 2.64063905,5.0188291 C2.73343592,5.04294903 2.8274777,5.06119026 2.92205547,5.07334532 Z" id="Path" fill="#C70024"></path>
                </g>
                <g id="bow-tie" transform="translate(21.287779, 14.717477)" fill-rule="nonzero">
                    <path d="M10.1942551,0.201236038 C10.1688362,0.116520204 10.0958648,0.0550468134 10.0081307,0.0437541064 C9.45117444,-0.0280469777 8.5017247,-0.0507145204 7.46899639,0.436103811 C6.94062089,0.685179862 6.53135266,1.00117034 6.23534001,1.27527513 L4.27714356,1.27527513 C3.98113091,1.00117034 3.57186268,0.68515933 3.04350772,0.436103811 C2.01075887,-0.0507145204 1.06130913,-0.0280469777 0.504352825,0.0437335742 C0.416598226,0.0550468134 0.343667871,0.116499671 0.318228482,0.201277102 C0.280243922,0.327837549 0.241520204,0.469181176 0.204767576,0.624178712 C0.0950845926,1.08674852 0.00291557162,1.67103318 1.4821179e-05,2.34779484 C-0.00383952037,3.28313896 0.164319152,4.04601265 0.318495401,4.55946124 C0.343708936,4.64339685 0.415612681,4.7049729 0.502443331,4.71663518 C1.05978975,4.79159823 2.02270861,4.8203433 3.06566196,4.32019957 C3.584182,4.07153417 3.98587385,3.75769957 4.27716409,3.48460085 L4.40877546,3.48460085 L6.10376971,3.48460085 L6.23538108,3.48460085 C6.52667132,3.75772011 6.92836317,4.0715547 7.44688321,4.32019957 C8.4898571,4.8203433 9.45277595,4.79157769 10.0101018,4.71663518 C10.0969325,4.7049729 10.1688568,4.64335578 10.1940498,4.5594407 C10.348226,4.04595105 10.5163847,3.2830979 10.5125105,2.34777431 C10.5086235,1.4441935 10.3456184,0.705486202 10.1942551,0.201236038 Z" id="Path" fill="#ED4850"></path>
                    <g id="Group" transform="translate(0.184790, 0.000000)" fill="#E0273D">
                        <path d="M10.0094653,0.201236038 C9.98404648,0.116520204 9.91107507,0.0550468134 9.823341,0.0437541064 C9.26638469,-0.0280469777 8.31693495,-0.0507145204 7.28420664,0.436103811 C6.75583114,0.685179862 6.34656291,1.00117034 6.05055026,1.27527513 L5.91489405,1.27527513 L4.19671896,1.27527513 L4.09235381,1.27527513 C3.79634116,1.00117034 3.38707293,0.68515933 2.85871797,0.436103811 C1.82596912,-0.0507145204 0.876519382,-0.0280469777 0.319563075,0.0437335742 C0.231787943,0.0550468134 0.158857589,0.116520204 0.133438732,0.201277102 C0.0954541721,0.327837549 0.0567509855,0.469201708 0.0199983574,0.624199244 C0.586625329,0.587159166 1.43025214,0.441257392 2.36118183,0.668856767 C2.8954706,0.799482589 3.8448998,1.13327447 4.14091245,1.40737927 L5.45326873,1.88446534 C5.74928137,1.61036055 6.15854961,1.29434954 6.68690457,1.04529402 C6.71105043,1.03391919 6.73515522,1.02279074 6.75919842,1.01197027 C8.14505995,0.387894218 9.71786712,1.40750246 9.73012484,2.9273571 C9.73020696,2.93721255 9.73026856,2.94708853 9.73030963,2.95696452 C9.73326626,3.66302562 9.63818167,4.27071698 9.52504928,4.74714602 C9.63444481,4.73948752 9.73484724,4.72866705 9.82467559,4.71663518 C9.91179369,4.7049729 9.98396436,4.64349951 10.0092395,4.55931751 C10.1634157,4.04582786 10.3315333,3.28301577 10.327679,2.34775378 C10.3238338,1.4441935 10.1608287,0.705486202 10.0094653,0.201236038 Z" id="Path"></path>
                        <path d="M4.09239488,2.09524885 C4.07434708,2.09524885 4.05599129,2.0925386 4.03786137,2.08683065 C3.78030552,2.00581061 3.44998357,1.90842641 3.17977989,1.87399392 C2.88380831,1.83631735 2.58268315,1.82941853 2.28471994,1.85342066 C2.18474869,1.86165407 2.09717888,1.78701955 2.08908919,1.68702776 C2.08102004,1.5870565 2.15551084,1.49946616 2.2554821,1.49139701 C2.57843298,1.46532112 2.90483328,1.47281537 3.22566935,1.51371551 C3.52435118,1.55174113 3.87485627,1.65481275 4.14682572,1.74034987 C4.24250575,1.77042953 4.2956636,1.87239241 4.2655634,1.96805191 C4.24117116,2.04564307 4.16959593,2.09524885 4.09239488,2.09524885 Z" id="Path"></path>
                        <path d="M2.69339274,3.17255256 C2.59736367,3.17255256 2.51714438,3.09724047 2.51217559,3.00024639 C2.50704254,2.90006981 2.58409987,2.81471748 2.68425591,2.80958443 C2.84791804,2.80120729 3.01309954,2.78437089 3.17524228,2.759568 C3.46550591,2.7151158 3.75412697,2.64380749 4.03313896,2.54761416 C4.12801823,2.5150501 4.23133624,2.56529238 4.26402349,2.66011005 C4.29671074,2.75492773 4.24634527,2.85830733 4.1515276,2.89099458 C3.85194235,2.99427152 3.54198834,3.07083607 3.2302275,3.11855289 C3.05605289,3.14524474 2.87861367,3.16329254 2.70281702,3.17230618 C2.69969612,3.17247043 2.69653417,3.17255256 2.69339274,3.17255256 Z" id="Path"></path>
                        <path d="M6.0505092,2.09524885 C5.97330815,2.09524885 5.90171239,2.04564307 5.87732014,1.96807244 C5.84721994,1.87239241 5.90039832,1.77042953 5.99605782,1.7403704 C6.26802727,1.65481275 6.61855289,1.55174113 6.91719366,1.51373604 C7.23802973,1.47285644 7.56445056,1.46530059 7.88738091,1.49141754 C7.98735217,1.4994867 8.0618635,1.5870565 8.05377382,1.68704829 C8.04568413,1.78701955 7.95776528,1.86146928 7.85814307,1.8534412 C7.56022093,1.82941853 7.25909576,1.83629681 6.96310365,1.87401445 C6.69294103,1.90844694 6.36263962,2.00583114 6.10502217,2.08685118 C6.08689225,2.0925386 6.068557,2.09524885 6.0505092,2.09524885 Z" id="Path"></path>
                        <path d="M7.44951133,3.17255256 C7.44639044,3.17255256 7.44324901,3.17247043 7.44006652,3.17230618 C7.26426988,3.16329254 7.08685118,3.14524474 6.91267658,3.11857342 C6.6008952,3.07079501 6.29092066,2.99420992 5.99135595,2.89099458 C5.89653827,2.85828679 5.8461728,2.75492773 5.87886005,2.66011005 C5.91154731,2.56529238 6.01488584,2.51496797 6.10974458,2.54761416 C6.38873604,2.64378696 6.67739816,2.71509527 6.96768233,2.75958853 C7.12980453,2.78439143 7.29500657,2.80122783 7.45864816,2.80958443 C7.55882474,2.81471748 7.63586153,2.90006981 7.63072848,3.00024639 C7.62575969,3.09724047 7.54554041,3.17255256 7.44951133,3.17255256 Z" id="Path"></path>
                    </g>
                    <polygon id="Path" fill="#F2BA43" points="6.18212057 3.43532359 5.85598719 3.48462139 4.27712303 3.48462139 4.27712303 1.33724129 6.23534001 1.33724129"></polygon>
                    <path d="M4.27712303,1.2752546 L4.27712303,1.61461071 L4.29196781,1.61461071 C5.15575723,1.61461071 5.85598719,2.31484067 5.85598719,3.17863009 L5.85598719,3.48462139 L6.23531948,3.48462139 L6.23531948,1.2752546 L4.27712303,1.2752546 Z" id="Path" fill="#EDA21D"></path>
                </g>
                <path d="M7.56898817,15.0328515 C7.64922718,18.4645967 10.4542143,21.204766 13.8868975,21.204766 L15.9219218,21.204766 L15.9219218,21.204766 L16.256805,19.9978057 L14.8791302,19.8830859 C11.9060152,19.6355129 9.31063973,17.7712731 8.12668356,15.0328515 L8.12668356,15.0328515 L8.12668356,15.0328515 L7.56898817,15.0328515 Z" id="Path-3" fill="#3B3B3B"></path>
                <path d="M55.664,22 L55.664,16.432 L56.84,16.432 C59.336,16.432 61.256,15.988 62.6,15.1 C63.944,14.212 64.616,12.768 64.616,10.768 C64.616,8.784 63.952,7.356 62.624,6.484 C61.296,5.612 59.392,5.176 56.912,5.176 C56.224,5.176 55.424,5.208 54.512,5.272 C53.6,5.336 52.736,5.448 51.92,5.608 L51.92,5.608 L51.92,22 L55.664,22 Z M56.84,13.24 L55.664,13.24 L55.664,8.44 C55.856,8.424 56.084,8.408 56.348,8.392 C56.612,8.376 56.88,8.368 57.152,8.368 C57.696,8.368 58.192,8.404 58.64,8.476 C59.088,8.548 59.468,8.676 59.78,8.86 C60.092,9.044 60.332,9.288 60.5,9.592 C60.668,9.896 60.752,10.28 60.752,10.744 C60.752,11.704 60.424,12.36 59.768,12.712 C59.112,13.064 58.136,13.24 56.84,13.24 L56.84,13.24 Z M69.7590589,7.84 C70.3350589,7.84 70.8350589,7.652 71.2590589,7.276 C71.6830589,6.9 71.8950589,6.384 71.8950589,5.728 C71.8950589,5.072 71.6830589,4.556 71.2590589,4.18 C70.8350589,3.804 70.3350589,3.616 69.7590589,3.616 C69.1830589,3.616 68.6830589,3.804 68.2590589,4.18 C67.8350589,4.556 67.6230589,5.072 67.6230589,5.728 C67.6230589,6.384 67.8350589,6.9 68.2590589,7.276 C68.6830589,7.652 69.1830589,7.84 69.7590589,7.84 Z M71.5590589,22 L71.5590589,9.376 L67.9830589,9.376 L67.9830589,22 L71.5590589,22 Z M79.3421177,22 L79.3421177,12.256 C79.5661177,12.224 79.8221177,12.196 80.1101177,12.172 C80.3981177,12.148 80.6701177,12.136 80.9261177,12.136 C81.7581177,12.136 82.3261177,12.376 82.6301177,12.856 C82.9341177,13.336 83.0861177,14.152 83.0861177,15.304 L83.0861177,15.304 L83.0861177,22 L86.6621177,22 L86.6621177,14.872 C86.6621177,14.008 86.5741177,13.224 86.3981177,12.52 C86.2221177,11.816 85.9261177,11.208 85.5101177,10.696 C85.0941177,10.184 84.5301177,9.788 83.8181177,9.508 C83.1061177,9.228 82.2141177,9.088 81.1421177,9.088 C80.0861177,9.088 79.0781177,9.164 78.1181177,9.316 C77.1581177,9.468 76.3741177,9.632 75.7661177,9.808 L75.7661177,9.808 L75.7661177,22 L79.3421177,22 Z M95.2131766,26.512 C97.4051766,26.512 99.0251766,26.012 100.073177,25.012 C101.121177,24.012 101.645177,22.48 101.645177,20.416 L101.645177,20.416 L101.645177,9.808 C101.325177,9.712 100.961177,9.62 100.553177,9.532 C100.145177,9.444 99.7171766,9.368 99.2691766,9.304 C98.8211766,9.24 98.3691766,9.188 97.9131766,9.148 C97.4571766,9.108 97.0131766,9.088 96.5811766,9.088 C95.5731766,9.088 94.6691766,9.236 93.8691766,9.532 C93.0691766,9.828 92.3931766,10.248 91.8411766,10.792 C91.2891766,11.336 90.8691766,11.988 90.5811766,12.748 C90.2931766,13.508 90.1491766,14.352 90.1491766,15.28 C90.1491766,17.136 90.6131766,18.58 91.5411766,19.612 C92.4691766,20.644 93.8051766,21.16 95.5491766,21.16 C96.0291766,21.16 96.4731766,21.116 96.8811766,21.028 C97.2891766,20.94 97.6851766,20.808 98.0691766,20.632 L98.0691766,20.632 L98.0691766,21.088 C98.0691766,21.792 97.8571766,22.368 97.4331766,22.816 C97.0091766,23.264 96.2851766,23.488 95.2611766,23.488 C94.4771766,23.488 93.7771766,23.424 93.1611766,23.296 C92.5451766,23.168 91.9571766,22.992 91.3971766,22.768 L91.3971766,22.768 L90.7731766,25.768 C91.4291766,25.992 92.1411766,26.172 92.9091766,26.308 C93.6771766,26.444 94.4451766,26.512 95.2131766,26.512 Z M96.2211766,18.28 C94.6051766,18.28 93.7971766,17.28 93.7971766,15.28 C93.7971766,14.32 94.0291766,13.528 94.4931766,12.904 C94.9571766,12.28 95.6611766,11.968 96.6051766,11.968 C96.9251766,11.968 97.2051766,11.98 97.4451766,12.004 C97.6851766,12.028 97.8931766,12.056 98.0691766,12.088 L98.0691766,12.088 L98.0691766,17.8 C97.8451766,17.928 97.5731766,18.04 97.2531766,18.136 C96.9331766,18.232 96.5891766,18.28 96.2211766,18.28 Z M111.252235,22.288 C112.308235,22.288 113.316235,22.212 114.276235,22.06 C115.236235,21.908 116.020235,21.744 116.628235,21.568 L116.628235,21.568 L116.628235,9.376 L113.052235,9.376 L113.052235,19.12 C112.828235,19.152 112.572235,19.18 112.284235,19.204 C111.996235,19.228 111.724235,19.24 111.468235,19.24 C110.636235,19.24 110.068235,18.984 109.764235,18.472 C109.460235,17.96 109.308235,17.128 109.308235,15.976 L109.308235,15.976 L109.308235,9.376 L105.732235,9.376 L105.732235,16.408 C105.732235,17.272 105.820235,18.064 105.996235,18.784 C106.172235,19.504 106.468235,20.124 106.884235,20.644 C107.300235,21.164 107.864235,21.568 108.576235,21.856 C109.288235,22.144 110.180235,22.288 111.252235,22.288 Z M122.611294,7.84 C123.187294,7.84 123.687294,7.652 124.111294,7.276 C124.535294,6.9 124.747294,6.384 124.747294,5.728 C124.747294,5.072 124.535294,4.556 124.111294,4.18 C123.687294,3.804 123.187294,3.616 122.611294,3.616 C122.035294,3.616 121.535294,3.804 121.111294,4.18 C120.687294,4.556 120.475294,5.072 120.475294,5.728 C120.475294,6.384 120.687294,6.9 121.111294,7.276 C121.535294,7.652 122.035294,7.84 122.611294,7.84 Z M124.411294,22 L124.411294,9.376 L120.835294,9.376 L120.835294,22 L124.411294,22 Z M132.194353,22 L132.194353,12.256 C132.418353,12.224 132.674353,12.196 132.962353,12.172 C133.250353,12.148 133.522353,12.136 133.778353,12.136 C134.610353,12.136 135.178353,12.376 135.482353,12.856 C135.786353,13.336 135.938353,14.152 135.938353,15.304 L135.938353,15.304 L135.938353,22 L139.514353,22 L139.514353,14.872 C139.514353,14.008 139.426353,13.224 139.250353,12.52 C139.074353,11.816 138.778353,11.208 138.362353,10.696 C137.946353,10.184 137.382353,9.788 136.670353,9.508 C135.958353,9.228 135.066353,9.088 133.994353,9.088 C132.938353,9.088 131.930353,9.164 130.970353,9.316 C130.010353,9.468 129.226353,9.632 128.618353,9.808 L128.618353,9.808 L128.618353,22 L132.194353,22 Z M149.217412,22.336 C150.161412,22.336 151.013412,22.176 151.773412,21.856 C152.533412,21.536 153.185412,21.084 153.729412,20.5 C154.273412,19.916 154.689412,19.212 154.977412,18.388 C155.265412,17.564 155.409412,16.656 155.409412,15.664 C155.409412,14.672 155.257412,13.768 154.953412,12.952 C154.649412,12.136 154.225412,11.44 153.681412,10.864 C153.137412,10.288 152.485412,9.84 151.725412,9.52 C150.965412,9.2 150.129412,9.04 149.217412,9.04 C148.321412,9.04 147.493412,9.2 146.733412,9.52 C145.973412,9.84 145.317412,10.288 144.765412,10.864 C144.213412,11.44 143.781412,12.136 143.469412,12.952 C143.157412,13.768 143.001412,14.672 143.001412,15.664 C143.001412,16.656 143.153412,17.564 143.457412,18.388 C143.761412,19.212 144.185412,19.916 144.729412,20.5 C145.273412,21.084 145.925412,21.536 146.685412,21.856 C147.445412,22.176 148.289412,22.336 149.217412,22.336 Z M149.217412,19.264 C148.401412,19.264 147.769412,18.94 147.321412,18.292 C146.873412,17.644 146.649412,16.768 146.649412,15.664 C146.649412,14.56 146.873412,13.692 147.321412,13.06 C147.769412,12.428 148.401412,12.112 149.217412,12.112 C150.033412,12.112 150.661412,12.428 151.101412,13.06 C151.541412,13.692 151.761412,14.56 151.761412,15.664 C151.761412,16.768 151.541412,17.644 151.101412,18.292 C150.661412,18.94 150.033412,19.264 149.217412,19.264 Z" id="Pinguino" fill="#FFFFFF" fill-rule="nonzero"></path>
            </g>
        </g>
    </g>
</svg>