<?xml version="1.0" encoding="UTF-8"?>
<svg width="211px" height="38px" viewBox="0 0 211 38" version="1.1" xmlns="http://www.w3.org/2000/svg" xmlns:xlink="http://www.w3.org/1999/xlink">
    <title>Group 2</title>
    <defs>
        <path d="M75.4723134,29.8288103 L75.4723134,22.2794096 L77.0667989,22.2794096 C80.451013,22.2794096 83.0542547,21.6774099 84.8765238,20.4734107 C86.6987929,19.2694114 87.6099275,17.3115568 87.6099275,14.5998468 C87.6099275,11.9098304 86.7096398,9.97366947 84.9090643,8.7913639 C83.1084889,7.60905833 80.5269409,7.01790555 77.1644205,7.01790555 C76.2315922,7.01790555 75.1469082,7.06129291 73.9103685,7.14806763 C72.6738287,7.23484235 71.50237,7.38669811 70.3959923,7.60363491 L70.3959923,7.60363491 L70.3959923,29.8288103 L75.4723134,29.8288103 Z M77.0667989,17.9515204 L75.4723134,17.9515204 L75.4723134,11.4434163 C75.7326376,11.4217226 76.0417725,11.4000289 76.3997183,11.3783353 C76.757664,11.3566416 77.1210331,11.3457947 77.4898257,11.3457947 C78.2274108,11.3457947 78.8999149,11.3946055 79.5073379,11.4922271 C80.114761,11.5898486 80.6299859,11.7633981 81.0530127,12.0128754 C81.4760394,12.2623527 81.8014446,12.5931814 82.0292283,13.0053613 C82.2570119,13.4175412 82.3709037,13.9381895 82.3709037,14.5673063 C82.3709037,15.8689271 81.9261833,16.758368 81.0367424,17.2356289 C80.1473015,17.7128899 78.823987,17.9515204 77.0667989,17.9515204 L77.0667989,17.9515204 Z M94.5831696,10.6299033 C95.3641421,10.6299033 96.0420696,10.3750026 96.6169522,9.86520107 C97.1918347,9.35539959 97.4792759,8.6557784 97.4792759,7.76633751 C97.4792759,6.87689662 97.1918347,6.17727544 96.6169522,5.66747395 C96.0420696,5.15767247 95.3641421,4.90277173 94.5831696,4.90277173 C93.8021972,4.90277173 93.1242696,5.15767247 92.5493871,5.66747395 C91.9745046,6.17727544 91.6870633,6.87689662 91.6870633,7.76633751 C91.6870633,8.6557784 91.9745046,9.35539959 92.5493871,9.86520107 C93.1242696,10.3750026 93.8021972,10.6299033 94.5831696,10.6299033 Z M97.0237087,29.8288103 L97.0237087,12.7124966 L92.1751711,12.7124966 L92.1751711,29.8288103 L97.0237087,29.8288103 Z M107.576408,29.8288103 L107.576408,16.617359 C107.88012,16.5739717 108.227218,16.5360077 108.617705,16.5034672 C109.008191,16.4709267 109.376983,16.4546564 109.724082,16.4546564 C110.852154,16.4546564 111.622279,16.7800616 112.034459,17.430872 C112.446639,18.0816825 112.652729,19.1880601 112.652729,20.7500051 L112.652729,20.7500051 L112.652729,29.8288103 L117.501267,29.8288103 L117.501267,20.1642758 C117.501267,18.992817 117.381951,17.9298267 117.143321,16.9753048 C116.904691,16.0207828 116.503357,15.196423 115.939322,14.5022252 C115.375286,13.8080275 114.610584,13.2711089 113.645215,12.8914695 C112.679846,12.5118301 111.470424,12.3220104 110.016947,12.3220104 C108.585164,12.3220104 107.218462,12.4250553 105.916841,12.6311453 C104.615221,12.8372353 103.55223,13.0595955 102.727871,13.298226 L102.727871,13.298226 L102.727871,29.8288103 L107.576408,29.8288103 Z M129.095263,35.9464281 C132.067297,35.9464281 134.263782,35.2685006 135.684718,33.9126456 C137.105654,32.5567906 137.816122,30.4796207 137.816122,27.6811359 L137.816122,27.6811359 L137.816122,13.298226 C137.382249,13.1680639 136.888717,13.0433252 136.335529,12.92401 C135.78234,12.8046947 135.202034,12.7016498 134.594611,12.614875 C133.987188,12.5281003 133.374341,12.4575959 132.756071,12.4033617 C132.137801,12.3491275 131.535802,12.3220104 130.950072,12.3220104 C129.583371,12.3220104 128.357678,12.5226769 127.272994,12.92401 C126.18831,13.3253431 125.271752,13.8948022 124.52332,14.6323873 C123.774888,15.3699724 123.205429,16.2539899 122.814942,17.2844397 C122.424456,18.3148895 122.229213,19.4592311 122.229213,20.7174646 C122.229213,23.2339315 122.85833,25.1917861 124.116563,26.5910285 C125.374797,27.9902709 127.186219,28.6898921 129.55083,28.6898921 C130.20164,28.6898921 130.80364,28.6302345 131.356829,28.5109192 C131.910018,28.391604 132.446936,28.2126311 132.967585,27.9740006 L132.967585,27.9740006 L132.967585,28.5922705 C132.967585,29.5467924 132.680143,30.3277649 132.105261,30.935188 C131.530378,31.542611 130.548739,31.8463225 129.160344,31.8463225 C128.097353,31.8463225 127.148255,31.7595478 126.313048,31.5859984 C125.477842,31.4124489 124.680599,31.1738185 123.92132,30.8701069 L123.92132,30.8701069 L123.075266,34.937672 C123.964707,35.2413835 124.930076,35.4854374 125.971373,35.6698337 C127.012669,35.85423 128.053966,35.9464281 129.095263,35.9464281 Z M130.461965,24.7850296 C128.270903,24.7850296 127.175372,23.4291746 127.175372,20.7174646 C127.175372,19.4158438 127.48993,18.3420066 128.119047,17.4959531 C128.748164,16.6498996 129.702686,16.2268728 130.982613,16.2268728 C131.416487,16.2268728 131.796126,16.2431431 132.121531,16.2756836 C132.446936,16.3082241 132.728954,16.346188 132.967585,16.3895754 L132.967585,16.3895754 L132.967585,24.1342192 C132.663873,24.3077687 132.295081,24.4596244 131.861207,24.5897865 C131.427333,24.7199486 130.960919,24.7850296 130.461965,24.7850296 Z M150.841901,30.2192965 C152.273684,30.2192965 153.640386,30.1162515 154.942007,29.9101616 C156.243627,29.7040716 157.306618,29.4817114 158.130978,29.2430809 L158.130978,29.2430809 L158.130978,12.7124966 L153.28244,12.7124966 L153.28244,25.9239478 C152.978729,25.9673352 152.63163,26.0052991 152.241143,26.0378397 C151.850657,26.0703802 151.481865,26.0866504 151.134766,26.0866504 C150.006694,26.0866504 149.236569,25.7395516 148.824389,25.0453538 C148.412209,24.351156 148.206119,23.2230847 148.206119,21.6611397 L148.206119,21.6611397 L148.206119,12.7124966 L143.357581,12.7124966 L143.357581,22.246869 C143.357581,23.4183278 143.476897,24.492165 143.715527,25.4683806 C143.954158,26.4445962 144.355491,27.2852263 144.919526,27.9902709 C145.483562,28.6953155 146.248264,29.2430809 147.213633,29.6335672 C148.179002,30.0240534 149.388425,30.2192965 150.841901,30.2192965 Z M166.243138,10.6299033 C167.02411,10.6299033 167.702038,10.3750026 168.276921,9.86520107 C168.851803,9.35539959 169.139244,8.6557784 169.139244,7.76633751 C169.139244,6.87689662 168.851803,6.17727544 168.276921,5.66747395 C167.702038,5.15767247 167.02411,4.90277173 166.243138,4.90277173 C165.462165,4.90277173 164.784238,5.15767247 164.209355,5.66747395 C163.634473,6.17727544 163.347032,6.87689662 163.347032,7.76633751 C163.347032,8.6557784 163.634473,9.35539959 164.209355,9.86520107 C164.784238,10.3750026 165.462165,10.6299033 166.243138,10.6299033 Z M168.683677,29.8288103 L168.683677,12.7124966 L163.835139,12.7124966 L163.835139,29.8288103 L168.683677,29.8288103 Z M179.236376,29.8288103 L179.236376,16.617359 C179.540088,16.5739717 179.887187,16.5360077 180.277673,16.5034672 C180.668159,16.4709267 181.036952,16.4546564 181.384051,16.4546564 C182.512122,16.4546564 183.282248,16.7800616 183.694428,17.430872 C184.106608,18.0816825 184.312698,19.1880601 184.312698,20.7500051 L184.312698,20.7500051 L184.312698,29.8288103 L189.161235,29.8288103 L189.161235,20.1642758 C189.161235,18.992817 189.04192,17.9298267 188.803289,16.9753048 C188.564659,16.0207828 188.163326,15.196423 187.59929,14.5022252 C187.035254,13.8080275 186.270552,13.2711089 185.305183,12.8914695 C184.339815,12.5118301 183.130392,12.3220104 181.676915,12.3220104 C180.245133,12.3220104 178.878431,12.4250553 177.57681,12.6311453 C176.275189,12.8372353 175.212199,13.0595955 174.387839,13.298226 L174.387839,13.298226 L174.387839,29.8288103 L179.236376,29.8288103 Z M202.317176,30.2843776 C203.597103,30.2843776 204.752292,30.0674408 205.782741,29.6335672 C206.813191,29.1996936 207.697209,28.5868471 208.434794,27.7950278 C209.172379,27.0032084 209.736415,26.0486865 210.126901,24.931462 C210.517387,23.8142374 210.71263,22.5831211 210.71263,21.2381129 C210.71263,19.8931047 210.50654,18.6674118 210.09436,17.5610341 C209.68218,16.4546564 209.107298,15.5109813 208.369713,14.7300089 C207.632128,13.9490364 206.74811,13.3416133 205.71766,12.9077397 C204.687211,12.4738661 203.553716,12.2569293 202.317176,12.2569293 C201.10233,12.2569293 199.979682,12.4738661 198.949232,12.9077397 C197.918782,13.3416133 197.029342,13.9490364 196.28091,14.7300089 C195.532478,15.5109813 194.946748,16.4546564 194.523721,17.5610341 C194.100695,18.6674118 193.889181,19.8931047 193.889181,21.2381129 C193.889181,22.5831211 194.095271,23.8142374 194.507451,24.931462 C194.919631,26.0486865 195.494514,27.0032084 196.232099,27.7950278 C196.969684,28.5868471 197.853701,29.1996936 198.884151,29.6335672 C199.914601,30.0674408 201.058943,30.2843776 202.317176,30.2843776 Z M202.317176,26.119191 C201.210798,26.119191 200.353898,25.6798939 199.746475,24.8012999 C199.139052,23.9227058 198.83534,22.7349769 198.83534,21.2381129 C198.83534,19.741249 199.139052,18.5643668 199.746475,17.7074665 C200.353898,16.8505661 201.210798,16.4221159 202.317176,16.4221159 C203.423554,16.4221159 204.275031,16.8505661 204.871607,17.7074665 C205.468183,18.5643668 205.766471,19.741249 205.766471,21.2381129 C205.766471,22.7349769 205.468183,23.9227058 204.871607,24.8012999 C204.275031,25.6798939 203.423554,26.119191 202.317176,26.119191 Z" id="path-1"></path>
        <filter x="0.0%" y="0.0%" width="100.0%" height="100.0%" filterUnits="objectBoundingBox" id="filter-2">
            <feOffset dx="0" dy="0" in="SourceAlpha" result="shadowOffsetOuter1"></feOffset>
            <feColorMatrix values="0 0 0 0 1   0 0 0 0 1   0 0 0 0 1  0 0 0 1 0" type="matrix" in="shadowOffsetOuter1"></feColorMatrix>
        </filter>
        <filter x="-3.6%" y="-16.1%" width="107.1%" height="132.2%" filterUnits="objectBoundingBox" id="filter-3">
            <feGaussianBlur stdDeviation="3" in="SourceAlpha" result="shadowBlurInner1"></feGaussianBlur>
            <feOffset dx="3" dy="4" in="shadowBlurInner1" result="shadowOffsetInner1"></feOffset>
            <feComposite in="shadowOffsetInner1" in2="SourceAlpha" operator="arithmetic" k2="-1" k3="1" result="shadowInnerInner1"></feComposite>
            <feColorMatrix values="0 0 0 0 1   0 0 0 0 1   0 0 0 0 1  0 0 0 1 0" type="matrix" in="shadowInnerInner1"></feColorMatrix>
        </filter>
    </defs>
    <g id="-Pinguino" stroke="none" stroke-width="1" fill="none" fill-rule="evenodd">
        <g id="Artboard" transform="translate(-352.000000, -496.000000)">
            <g id="Pinguino" transform="translate(352.000000, 76.000000)">
                <g id="Group-2" transform="translate(0.000000, 420.046875)">
                    <g id="PENGUIN">
                        <g id="penguin" transform="translate(17.745487, 0.000000)" fill-rule="nonzero">
                            <path d="M32.2855982,18.2026653 C32.2855982,9.52854281 30.2809995,0.0416912054 18.2443565,0.0416912054 C6.20771358,0.0416912054 4.20311491,9.52854281 4.20311491,18.2026653 C4.20311491,26.8769304 0,28.6875403 0,36.4470219 L5.25637016,36.4470219 L18.2443565,30.9676572 L31.2323429,36.4470219 L36.4887131,36.4470219 C36.4887131,28.6875403 32.2855982,26.8769304 32.2855982,18.2026653 Z" id="Path" fill="#424242"></path>
                            <g id="Group" opacity="0.1" fill="#000000">
                                <path d="M19.3456458,0.0693428083 C18.9882417,0.0510271847 18.6212165,0.0417624724 18.2443565,0.0417624724 C6.20771358,0.0417624724 4.20311491,9.52861407 4.20311491,18.2028079 C4.20311491,26.8769304 0,28.6875403 0,36.4470219 L2.20250718,36.4470219 C2.20250718,28.687469 6.40562209,26.8768591 6.40562209,18.2026653 C6.40562209,9.80014141 8.28671502,0.634989128 19.3456458,0.0693428083 Z" id="Path"></path>
                            </g>
                            <path d="M12.0444823,15.8195675 C12.0444823,15.8195675 12.3506454,18.2028079 18.2443565,18.2028079 C24.1380676,18.2028079 24.4442308,15.8195675 24.4442308,15.8195675 L24.4442308,14.7849842 L18.6417414,13.1683632 L12.0446249,14.7202738 L12.0446249,15.8195675 L12.0444823,15.8195675 L12.0444823,15.8195675 Z" id="Path" fill="#FFA001"></path>
                            <path d="M26.9321623,13.6856192 L25.2186182,13.6856192 C20.1101983,13.6856192 21.856169,9.41786513 18.2443565,9.41786513 C14.6325441,9.41786513 16.3784435,13.6856192 11.2700949,13.6856192 L9.55655075,13.6856192 C8.96731504,13.6856192 8.48961222,14.1632508 8.48961222,14.7525577 C8.48961222,15.3418647 8.96724378,15.8194963 9.55655075,15.8194963 L12.0446249,15.8194963 C14.334933,15.8194963 16.5438542,14.4518822 18.2444991,15.985976 L18.2444991,15.985976 L18.2444991,15.985976 C19.9450727,14.4518822 22.1539939,15.8194963 24.4443733,15.8194963 L26.9324474,15.8194963 C27.5216831,15.8194963 27.9993859,15.3418647 27.9993859,14.7525577 C27.9991721,14.163322 27.5215406,13.6856192 26.9321623,13.6856192 Z" id="Path" fill="#FFC108"></path>
                            <circle id="Oval" fill="#E6E1D7" cx="11.0435371" cy="9.45036289" r="2.55420992"></circle>
                            <circle id="Oval" fill="#212121" cx="11.0435371" cy="9.45036289" r="1.19628816"></circle>
                            <circle id="Oval" fill="#E6E1D7" cx="25.445176" cy="9.45036289" r="2.55420992"></circle>
                            <circle id="Oval" fill="#212121" cx="25.445176" cy="9.45036289" r="1.19628816"></circle>
                            <path d="M31.2323429,36.4470219 C31.2323429,36.4470219 32.202287,28.2994913 28.6458491,24.3550044 C25.0894111,20.4105175 23.1034131,23.5238885 18.2443565,23.5238885 C13.3853,23.5238885 11.3993733,20.4105888 7.8429353,24.3550757 C4.28649732,28.2995626 5.25644143,36.4470219 5.25644143,36.4470219 L31.2323429,36.4470219 Z" id="Path" fill="#E6E1D7"></path>
                        </g>
                        <rect id="Rectangle" fill="#EFF0F1" x="0" y="19.5271629" width="21.2375713" height="1" rx="0.5"></rect>
                        <rect id="Rectangle" fill="#FFFFFF" x="1.92420948" y="19.5271629" width="19.3133618" height="1" rx="0.5"></rect>
                        <g id="wine" transform="translate(4.489822, 7.554304)" fill-rule="nonzero">
                            <path d="M4.37471651,6.79727936 L4.36719127,6.79922514 C4.2336125,6.83462422 4.09811139,6.86127902 3.96188355,6.87874413 C3.56796918,6.92966254 3.166764,6.90539893 2.78035142,6.8048046 C2.77090385,6.80238996 2.76143284,6.79971745 2.75198527,6.79727936 C-0.12448285,6.03488637 -0.23042221,3.8209202 0.17125183,2.12499961 C0.35816365,1.33545952 0.655117372,0.658164975 0.833777222,0.291632138 C0.920798001,0.112972289 1.10213036,0 1.30066996,0 L5.82605526,0 C6.02459485,0 6.20592722,0.112972289 6.292948,0.291632138 C6.47160785,0.658164975 6.76856157,1.33545952 6.95547339,2.12499961 C7.35712399,3.8209202 7.25118463,6.03488637 4.37471651,6.79727936 Z" id="Path" fill="#C2DFF6"></path>
                            <g id="Group" transform="translate(0.797065, 0.000000)" fill="#D1E7F8">
                                <path d="M3.57765118,6.79727936 L3.57012594,6.79922514 C3.43654717,6.83462422 3.30104606,6.86127902 3.16481822,6.87874413 C3.03658448,6.86226363 2.90907747,6.83753116 2.78325836,6.8048046 C2.77381079,6.80238996 2.76433978,6.79971745 2.75489221,6.79727936 C-0.121575906,6.03488637 -0.227515266,3.8209202 0.174158775,2.12499961 C0.361070595,1.33545952 0.658024316,0.658164975 0.836684166,0.291632138 C0.923704945,0.112972289 1.10501386,0 1.30355346,0 L5.02896649,0 C5.22750608,0 5.40883844,0.112972289 5.49585922,0.291632138 C5.67451907,0.658164975 5.97147279,1.33545952 6.15838461,2.12499961 C6.56005866,3.8209202 6.4541193,6.03488637 3.57765118,6.79727936 Z" id="Path"></path>
                                <rect id="Rectangle" x="2.29357893" y="5.79731402" width="1" height="5.63588485"></rect>
                            </g>
                            <path d="M3.45698955,10.8829659 L1.08260226,11.5866105 C0.786726924,11.6742877 0.870700101,12.0028661 1.1889636,12.0028661 L5.93771473,12.0028661 C6.25597823,12.0028661 6.33995141,11.6742877 6.04407607,11.5866105 L3.66971222,10.8829659 C3.60137559,10.8626876 3.52530274,10.8626876 3.45698955,10.8829659 Z" id="Path" fill="#B3D8F4"></path>
                            <path d="M4.37471651,6.79727936 L4.36719127,6.79922514 C4.2336125,6.83462422 4.09811139,6.86127902 3.96188355,6.87874413 C3.56796918,6.92966254 3.166764,6.90539893 2.78035142,6.8048046 C2.77090385,6.80238996 2.76143284,6.79971745 2.75198527,6.79727936 C-0.12448285,6.03488637 -0.23042221,3.8209202 0.17125183,2.12499961 L6.9554265,2.12499961 C7.35712399,3.8209202 7.25118463,6.03488637 4.37471651,6.79727936 Z" id="Path" fill="#ED4850"></path>
                            <path d="M3.96188355,6.87872069 C3.56796918,6.92963909 3.166764,6.90537549 2.78035142,6.80478115 C2.77090385,6.80236652 2.76143284,6.799694 2.75198527,6.79725592 C-0.12448285,6.03488637 -0.23042221,3.8209202 0.17125183,2.12499961 L0.971224105,2.12499961 C0.569550065,3.8209202 0.675489424,6.03488637 3.55195754,6.79727936 C3.56140511,6.799694 3.57087612,6.80236652 3.58032369,6.8048046 C3.7061428,6.83750772 3.83364981,6.86224019 3.96188355,6.87872069 Z" id="Path" fill="#C70024"></path>
                        </g>
                        <g id="bow-tie" transform="translate(28.863142, 19.954765)" fill-rule="nonzero">
                            <path d="M13.8219319,0.272846891 C13.7874676,0.157984502 13.6885289,0.0746354979 13.5695742,0.0593242245 C12.8144222,-0.0380276353 11.5271061,-0.0687615367 10.1268762,0.591293538 C9.41047563,0.929004551 8.85556725,1.35744182 8.45421701,1.72908818 L5.79918654,1.72908818 C5.39783631,1.35744182 4.84292792,0.928976712 4.1265552,0.591293538 C2.72629749,-0.0687615367 1.43898131,-0.0380276353 0.683829306,0.0592963859 C0.564846793,0.0746354979 0.465963806,0.157956664 0.431471683,0.272902568 C0.379970127,0.444500185 0.327466379,0.63614165 0.277635144,0.846295836 C0.128920922,1.47347343 0.00395309239,2.26567871 2.00953698e-05,3.18326941 C-0.00520583294,4.45146042 0.222792947,5.48580653 0.431833586,6.18196837 C0.466019483,6.29577289 0.563510536,6.37926109 0.681240309,6.39507346 C1.43692125,6.49671247 2.7424996,6.53568662 4.15659313,5.85756425 C4.85963113,5.52041001 5.40426704,5.0948958 5.79921438,4.72461354 L5.97766031,4.72461354 L8.27582676,4.72461354 L8.45427269,4.72461354 C8.84922003,5.09492364 9.39385594,5.52043785 10.0968939,5.85756425 C11.5110153,6.53568662 12.8165937,6.49668464 13.5722468,6.39507346 C13.6899765,6.37926109 13.7874954,6.29571721 13.8216535,6.18194053 C14.0306941,5.48572301 14.2586929,4.45140474 14.2534401,3.18324157 C14.2481699,1.95811699 14.0271586,0.956537004 13.8219319,0.272846891 Z" id="Path" fill="#ED4850"></path>
                            <g id="Group" transform="translate(0.250548, 0.000000)" fill="#E0273D">
                                <path d="M13.5713838,0.272846891 C13.5369195,0.157984502 13.4379808,0.0746354979 13.3190261,0.0593242245 C12.5638741,-0.0380276353 11.2765579,-0.0687615367 9.87632808,0.591293538 C9.15992752,0.929004551 8.60501914,1.35744182 8.2036689,1.72908818 L8.01973875,1.72908818 L5.69014243,1.72908818 L5.54863843,1.72908818 C5.1472882,1.35744182 4.59237981,0.928976712 3.87600709,0.591293538 C2.47574938,-0.0687615367 1.1884332,-0.0380276353 0.433281197,0.0592963859 C0.314270845,0.0746354979 0.215387858,0.157984502 0.180923574,0.272902568 C0.129422018,0.444500185 0.0769461082,0.636169488 0.0271148732,0.846323675 C0.795378892,0.796102698 1.93921453,0.598281046 3.20142022,0.906872801 C3.92583832,1.08398248 5.21312667,1.53655588 5.6144769,1.90820224 L7.39384174,2.55506178 C7.79519197,2.18341542 8.35010035,1.75495031 9.06647308,1.41726714 C9.09921136,1.40184451 9.13189397,1.38675595 9.16449306,1.37208496 C11.0435204,0.52592832 13.1760188,1.90836927 13.1926385,3.96907179 C13.1927499,3.98243436 13.1928334,3.99582476 13.1928891,4.00921517 C13.1968979,4.96653165 13.0679769,5.79047303 12.9145858,6.43644173 C13.0629103,6.42605791 13.1990414,6.41138692 13.3208356,6.39507346 C13.4389552,6.37926109 13.5368081,6.29591208 13.5710775,6.1817735 C13.7801182,5.48555598 14.0080613,4.45129339 14.0028354,3.18321373 C13.9976218,1.95811699 13.7766105,0.956537004 13.5713838,0.272846891 Z" id="Path"></path>
                                <path d="M5.54869411,2.84085366 C5.52422391,2.84085366 5.49933613,2.83717895 5.47475457,2.8294398 C5.12554619,2.71958837 4.67767752,2.58754952 4.31132051,2.54086405 C3.91002595,2.48978008 3.50174389,2.48042628 3.09774898,2.5129697 C2.96220246,2.52413301 2.84347049,2.42293941 2.83250205,2.28736504 C2.82156145,2.15181852 2.92256018,2.03305871 3.05810671,2.02211811 C3.49598129,1.98676299 3.93853276,1.99692411 4.37353996,2.05237876 C4.77850922,2.10393599 5.2537433,2.24368616 5.62249444,2.35966209 C5.75222269,2.40044576 5.82429703,2.53869264 5.78348552,2.66839304 C5.75041317,2.77359541 5.65336754,2.84085366 5.54869411,2.84085366 Z" id="Path"></path>
                                <path d="M3.65185005,4.3015213 C3.52164855,4.3015213 3.41288283,4.19940902 3.40614587,4.0678991 C3.3991862,3.93207419 3.50366476,3.8163488 3.63946184,3.80938913 C3.86136394,3.79803095 4.08532612,3.77520323 4.30516816,3.74157411 C4.69872356,3.68130337 5.09005187,3.58461964 5.46835168,3.45419543 C5.59699421,3.41004328 5.73707845,3.47816453 5.78139762,3.60672355 C5.8257168,3.73528257 5.75742852,3.87545032 5.6288695,3.91976949 C5.22267534,4.05979805 4.80242264,4.16360848 4.37972014,4.22830557 C4.14356463,4.26449585 3.90298277,4.28896605 3.664628,4.30118723 C3.66039652,4.30140994 3.65610937,4.3015213 3.65185005,4.3015213 Z" id="Path"></path>
                                <path d="M8.20361323,2.84085366 C8.09893979,2.84085366 8.00186632,2.77359541 7.96879397,2.66842088 C7.92798247,2.53869264 8.00008465,2.40044576 8.12978505,2.35968993 C8.49853619,2.24368616 8.97379811,2.10393599 9.3787117,2.0524066 C9.81371889,1.99697979 10.2562982,1.98673515 10.6941449,2.02214595 C10.8296915,2.03308655 10.930718,2.15181852 10.9197496,2.28739288 C10.9087812,2.42293941 10.7895759,2.52388246 10.6545027,2.51299754 C10.2505634,2.48042628 9.84228138,2.48975224 9.44095898,2.54089189 C9.07465765,2.58757736 8.62681682,2.71961621 8.27752492,2.82946764 C8.25294337,2.83717895 8.22808343,2.84085366 8.20361323,2.84085366 Z" id="Path"></path>
                                <path d="M10.1004573,4.3015213 C10.0962258,4.3015213 10.0919665,4.30140994 10.0876515,4.30118723 C9.84929672,4.28896605 9.6087427,4.26449585 9.37258719,4.22833341 C8.94985685,4.1635528 8.52957632,4.05971453 8.12340999,3.91976949 C7.99485097,3.87542248 7.9265627,3.73528257 7.97088187,3.60672355 C8.01520105,3.47816453 8.15531312,3.40993193 8.28392781,3.45419543 C8.66219978,3.5845918 9.05358377,3.68127553 9.44716701,3.74160195 C9.66698122,3.77523107 9.89097123,3.79805879 10.1128455,3.80938913 C10.2486704,3.8163488 10.3531211,3.93207419 10.3461615,4.0678991 C10.3394245,4.19940902 10.2306588,4.3015213 10.1004573,4.3015213 Z" id="Path"></path>
                            </g>
                            <polygon id="Path" fill="#F2BA43" points="8.38205916 4.65780071 7.93986958 4.72464137 5.7991587 4.72464137 5.7991587 1.81310531 8.45421701 1.81310531"></polygon>
                            <path d="M5.7991587,1.72906034 L5.7991587,2.18917802 L5.81928606,2.18917802 C6.99045928,2.18917802 7.93986958,3.13858833 7.93986958,4.30976154 L7.93986958,4.72464137 L8.45418917,4.72464137 L8.45418917,1.72906034 L5.7991587,1.72906034 Z" id="Path" fill="#EDA21D"></path>
                        </g>
                        <path d="M10.2624506,20.3823671 C10.371243,25.0353161 14.1743989,28.7505882 18.8286195,28.7505882 L21.5878175,28.7505882 L21.5878175,28.7505882 L22.0418706,27.114125 L20.1739433,26.9585817 C16.1428304,26.6229085 12.6238775,24.0952698 11.0186046,20.3823671 L11.0186046,20.3823671 L11.0186046,20.3823671 L10.2624506,20.3823671 Z" id="Path-3" fill="#3B3B3B"></path>
                        <g id="Pinguino" fill-rule="nonzero">
                            <use fill="black" fill-opacity="1" filter="url(#filter-2)" xlink:href="#path-1"></use>
                            <use fill="#FFFFFF" xlink:href="#path-1"></use>
                            <use fill="black" fill-opacity="1" filter="url(#filter-3)" xlink:href="#path-1"></use>
                        </g>
                    </g>
                </g>
            </g>
        </g>
    </g>
</svg>